# xmcd CD database file
#
# Track frame offsets:
#	150
#	17515
#	35653
#	54027
#	69961
#	90580
#	109499
#	130714
#	152814
#	166769
#	181841
#	206189
#	225170
#	248393
#	270206
#	284718
#	302380
#	319594
#
# Disc length: 4429 seconds
#
# Revision: 0
# Processed by: cddbd v1.5.1PL0 Copyright (c) Steve Scherf et al.
# Submitted via: CDex 1.51
#
DISCID=d9114b12
DTITLE=ABBA - GOLD
DYEAR=1900
DGENRE=Country
TTITLE0=ダンシング・クイーン
TTITLE1=ノウイング・ミー、ノウイング・ユー
TTITLE2=テイク・ア・チャンス
TTITLE3=ママ・ミア
TTITLE4=レイ・オール・ユア・ラヴ・オン・ミー
TTITLE5=スーパー・トゥルーパー
TTITLE6=アイ・ハヴ・ア・ドリーム
TTITLE7=ザ・ウィナー
TTITLE8=マネー、マネー、マネー
TTITLE9=SOS
TTITLE10=チキチータ
TTITLE11=悲しきフェルナンド
TTITLE12=ヴーレ・ヴー
TTITLE13=ギミー!ギミー!ギミー!
TTITLE14=ダズ・ユア・マザー・ノウ
TTITLE15=ワン・オブ・アス
TTITLE16=サンキュー・フォー・ザ・ミュージック
TTITLE17=恋のウォータールー
EXTD=
EXTT0=
EXTT1=
EXTT2=
EXTT3=
EXTT4=
EXTT5=
EXTT6=
EXTT7=
EXTT8=
EXTT9=
EXTT10=
EXTT11=
EXTT12=
EXTT13=
EXTT14=
EXTT15=
EXTT16=
EXTT17=
PLAYORDER=
